<svg width="156" height="947" viewBox="0 0 156 947" fill="none" xmlns="http://www.w3.org/2000/svg">
<path d="M3.80435 946.138L3.80434 841.57L31.3005 841.57L31.3005 913.435L65.6707 913.435L65.6707 851.152L91.0838 851.152L91.0838 913.435L152.534 913.435L152.534 946.138L3.80435 946.138Z" fill="black"/>
<path d="M71.0866 802.456L71.0866 766.627C71.0866 759.128 69.4202 753.504 66.0873 749.755C62.7544 746.005 57.3385 744.131 49.8396 744.131C42.6184 744.131 37.4108 746.005 34.2168 749.755C30.8839 753.504 29.2175 759.128 29.2175 766.627L29.2175 802.456L71.0866 802.456ZM3.80434 835.16L3.80434 754.962C3.80434 748.297 4.9153 742.325 7.13721 737.048C9.22025 731.632 12.1365 727.05 15.886 723.3C19.6355 719.412 24.0099 716.496 29.0091 714.551C33.8696 712.468 39.1466 711.427 44.8403 711.427C53.5891 711.427 61.1574 713.302 67.5454 717.051C73.9334 720.662 78.7939 726.633 82.1267 734.965L82.5433 734.965C83.6543 730.938 85.3902 727.605 87.751 724.967C89.9729 722.328 92.6808 720.176 95.8748 718.509C98.93 716.843 102.332 715.662 106.082 714.968C109.831 714.135 113.581 713.579 117.33 713.302C119.691 713.163 122.468 713.024 125.662 712.885C128.856 712.746 132.12 712.538 135.453 712.26C138.785 711.843 141.979 711.288 145.035 710.594C147.951 709.76 150.451 708.58 152.534 707.052L152.534 739.756C147.812 741.561 142.188 742.672 135.661 743.089C129.134 743.506 122.885 744.131 116.914 744.964C109.137 746.075 103.443 748.436 99.8326 752.046C96.222 755.657 94.4167 761.559 94.4167 769.752L94.4167 802.456L152.534 802.456L152.534 835.16L3.80434 835.16Z" fill="black"/>
<path d="M3.80434 697.329L3.80433 586.094L31.3005 586.094L31.3005 664.625L63.1711 664.625L63.171 592.552L88.5842 592.552L88.5842 664.625L125.037 664.625L125.037 584.428L152.534 584.428L152.534 697.329L3.80434 697.329Z" fill="black"/>
<path d="M3.80433 574.755L3.80433 463.52L31.3005 463.52L31.3005 542.051L63.171 542.051L63.171 469.978L88.5842 469.978L88.5842 542.051L125.037 542.051L125.037 461.854L152.534 461.854L152.534 574.755L3.80433 574.755Z" fill="black"/>
<path d="M125.037 419.477L125.037 390.314C125.037 385.593 124.274 381.01 122.746 376.566C121.218 372.123 118.719 368.165 115.247 364.693C111.636 361.221 106.984 358.444 101.291 356.361C95.5971 354.278 88.6536 353.236 80.4603 353.236C72.9613 353.236 66.2262 354 60.2548 355.528C54.1445 356.916 48.9369 359.277 44.632 362.61C40.327 365.943 37.0636 370.387 34.8417 375.941C32.4809 381.357 31.3005 388.092 31.3005 396.147L31.3005 419.477L125.037 419.477ZM3.80433 452.181L3.80432 388.023C3.80432 378.441 5.33189 369.553 8.38702 361.36C11.4421 353.028 16.0248 345.876 22.1351 339.905C28.2454 333.795 35.8832 329.073 45.0486 325.74C54.214 322.268 64.9763 320.532 77.3357 320.532C88.1675 320.532 98.1661 321.921 107.332 324.699C116.497 327.476 124.412 331.711 131.078 337.405C137.744 342.96 143.021 349.973 146.909 358.444C150.659 366.776 152.534 376.636 152.534 388.023L152.534 452.181L3.80433 452.181Z" fill="black"/>
<path d="M78.7939 284.035C85.043 284.035 91.1532 283.341 97.1246 281.952C102.957 280.425 108.234 278.064 112.956 274.87C117.677 271.676 121.496 267.51 124.412 262.372C127.19 257.233 128.579 250.984 128.579 243.624C128.579 236.264 127.19 230.015 124.412 224.877C121.496 219.739 117.677 215.573 112.956 212.379C108.234 209.185 102.957 206.893 97.1246 205.505C91.1532 203.977 85.043 203.213 78.7939 203.213C72.267 203.213 65.9484 203.977 59.8382 205.505C53.7279 206.893 48.312 209.185 43.5904 212.379C38.73 215.573 34.9111 219.739 32.1337 224.877C29.2174 230.015 27.7593 236.264 27.7593 243.624C27.7593 250.984 29.2174 257.233 32.1337 262.372C34.9111 267.51 38.73 271.676 43.5904 274.87C48.312 278.064 53.7279 280.425 59.8382 281.952C65.9484 283.341 72.267 284.035 78.7939 284.035ZM78.7939 316.739C67.6843 316.739 57.408 315.073 47.9648 311.74C38.3828 308.407 30.0507 303.616 22.9683 297.367C15.886 291.118 10.3312 283.48 6.30397 274.453C2.27676 265.288 0.263153 255.012 0.263153 243.624C0.263152 232.098 2.27676 221.822 6.30397 212.795C10.3312 203.769 15.886 196.131 22.9683 189.882C30.0507 183.633 38.3828 178.842 47.9648 175.509C57.4079 172.176 67.6843 170.509 78.7939 170.509C89.6257 170.509 99.7631 172.176 109.206 175.509C118.511 178.842 126.634 183.633 133.578 189.882C140.521 196.131 146.007 203.769 150.034 212.795C153.922 221.822 155.866 232.098 155.866 243.624C155.866 255.012 153.922 265.288 150.034 274.453C146.007 283.48 140.521 291.118 133.578 297.367C126.634 303.616 118.511 308.407 109.206 311.74C99.7632 315.073 89.6257 316.739 78.7939 316.739Z" fill="black"/>
<path d="M3.80431 160.652L3.80431 114.617L106.082 79.8304L106.082 79.4138L3.80431 46.5017L3.80431 0.466492L152.534 0.466485L152.534 31.0872L47.1316 31.0872L47.1316 31.5038L152.534 67.9571L152.534 93.1619L48.1731 129.615L48.1731 130.032L152.534 130.032L152.534 160.652L3.80431 160.652Z" fill="black"/>
</svg>
