<svg width="156" height="948" viewBox="0 0 156 948" fill="none" xmlns="http://www.w3.org/2000/svg">
<path d="M53.7974 841.986C50.0479 842.541 46.6456 843.791 43.5905 845.735C40.3965 847.679 37.6191 850.11 35.2583 853.026C32.8975 855.942 31.0922 859.275 29.8424 863.024C28.4537 866.635 27.7593 870.454 27.7593 874.481C27.7593 881.841 29.2175 888.09 32.1337 893.229C34.9111 898.367 38.73 902.533 43.5905 905.727C48.312 908.921 53.7279 911.282 59.8382 912.809C65.9485 914.198 72.267 914.892 78.7939 914.892C85.043 914.892 91.1533 914.198 97.1247 912.809C102.957 911.282 108.234 908.921 112.956 905.727C117.677 902.533 121.496 898.367 124.413 893.229C127.19 888.09 128.579 881.841 128.579 874.481C128.579 864.483 125.523 856.706 119.413 851.151C113.303 845.457 105.249 841.986 95.2499 840.736L95.2499 809.074C104.554 809.907 112.956 812.059 120.455 815.531C127.954 819.003 134.342 823.586 139.619 829.279C144.896 834.973 148.923 841.639 151.7 849.276C154.478 856.914 155.866 865.316 155.866 874.481C155.866 885.869 153.922 896.145 150.034 905.31C146.007 914.337 140.521 921.975 133.578 928.224C126.634 934.473 118.511 939.264 109.206 942.597C99.7632 945.93 89.6257 947.596 78.7939 947.596C67.6843 947.596 57.408 945.93 47.9649 942.597C38.3829 939.264 30.0507 934.473 22.9683 928.224C15.886 921.975 10.3312 914.337 6.304 905.31C2.27679 896.145 0.263181 885.869 0.26318 874.481C0.26318 866.288 1.44357 858.581 3.80434 851.359C6.16513 843.999 9.63687 837.472 14.2196 831.779C18.6634 825.946 24.2182 821.155 30.8839 817.406C37.5496 813.656 45.1875 811.296 53.7974 810.323L53.7974 841.986Z" fill="black"/>
<path d="M78.7939 772.993C85.043 772.993 91.1533 772.299 97.1246 770.91C102.957 769.383 108.234 767.022 112.956 763.828C117.677 760.634 121.496 756.468 124.413 751.329C127.19 746.191 128.579 739.942 128.579 732.582C128.579 725.222 127.19 718.973 124.413 713.835C121.496 708.697 117.677 704.53 112.956 701.336C108.234 698.142 102.957 695.851 97.1246 694.462C91.1533 692.935 85.043 692.171 78.7939 692.171C72.267 692.171 65.9484 692.935 59.8382 694.462C53.7279 695.851 48.312 698.142 43.5905 701.336C38.73 704.53 34.9111 708.697 32.1337 713.835C29.2175 718.973 27.7593 725.222 27.7593 732.582C27.7593 739.942 29.2175 746.191 32.1337 751.329C34.9111 756.468 38.73 760.634 43.5905 763.828C48.312 767.022 53.7279 769.383 59.8382 770.91C65.9484 772.299 72.267 772.993 78.7939 772.993ZM78.7939 805.697C67.6843 805.697 57.408 804.03 47.9648 800.698C38.3828 797.365 30.0507 792.574 22.9683 786.325C15.886 780.075 10.3312 772.438 6.304 763.411C2.27678 754.246 0.263175 743.969 0.263174 732.582C0.263174 721.056 2.27678 710.78 6.30399 701.753C10.3312 692.727 15.886 685.089 22.9683 678.84C30.0507 672.59 38.3828 667.799 47.9648 664.467C57.408 661.134 67.6843 659.467 78.7939 659.467C89.6257 659.467 99.7632 661.134 109.206 664.467C118.511 667.799 126.634 672.59 133.578 678.84C140.521 685.089 146.007 692.727 150.034 701.753C153.922 710.78 155.866 721.056 155.866 732.582C155.866 743.969 153.922 754.246 150.034 763.411C146.007 772.438 140.521 780.075 133.578 786.325C126.634 792.574 118.511 797.365 109.206 800.698C99.7632 804.03 89.6257 805.697 78.7939 805.697Z" fill="black"/>
<path d="M3.80433 649.61L3.80433 617.115L103.582 555.04L103.582 554.624L3.80433 554.624L3.80433 524.003L152.534 524.003L152.534 556.707L52.9641 618.573L52.9641 618.99L152.534 618.99L152.534 649.61L3.80433 649.61Z" fill="black"/>
<path d="M31.3005 474.799L31.3005 519.376L3.80433 519.376L3.80432 397.518L31.3005 397.518L31.3005 442.095L152.534 442.095L152.534 474.799L31.3005 474.799Z" fill="black"/>
<path d="M71.0866 360.163L71.0866 324.335C71.0866 316.836 69.4202 311.212 66.0873 307.462C62.7544 303.713 57.3385 301.838 49.8396 301.838C42.6183 301.838 37.4107 303.713 34.2167 307.462C30.8839 311.212 29.2174 316.836 29.2174 324.335L29.2174 360.163L71.0866 360.163ZM3.80432 392.867L3.80432 312.67C3.80432 306.004 4.91528 300.033 7.13719 294.756C9.22023 289.34 12.1365 284.757 15.886 281.008C19.6354 277.119 24.0098 274.203 29.0091 272.259C33.8696 270.176 39.1466 269.134 44.8403 269.134C53.589 269.134 61.1574 271.009 67.5454 274.759C73.9334 278.369 78.7939 284.341 82.1267 292.673L82.5433 292.673C83.6543 288.646 85.3902 285.313 87.7509 282.674C89.9728 280.036 92.6808 277.883 95.8748 276.217C98.9299 274.55 102.332 273.37 106.082 272.676C109.831 271.842 113.581 271.287 117.33 271.009C119.691 270.87 122.468 270.731 125.662 270.593C128.856 270.454 132.12 270.245 135.453 269.968C138.785 269.551 141.979 268.996 145.035 268.301C147.951 267.468 150.451 266.288 152.534 264.76L152.534 297.464C147.812 299.269 142.188 300.38 135.661 300.797C129.134 301.213 122.885 301.838 116.914 302.671C109.137 303.782 103.443 306.143 99.8326 309.754C96.222 313.364 94.4167 319.266 94.4167 327.46L94.4167 360.163L152.534 360.163L152.534 392.867L3.80432 392.867Z" fill="black"/>
<path d="M78.7939 228.79C85.043 228.79 91.1532 228.096 97.1246 226.707C102.957 225.18 108.234 222.819 112.956 219.625C117.677 216.431 121.496 212.265 124.412 207.126C127.19 201.988 128.579 195.739 128.579 188.379C128.579 181.019 127.19 174.77 124.412 169.632C121.496 164.494 117.677 160.327 112.956 157.133C108.234 153.939 102.957 151.648 97.1246 150.259C91.1532 148.732 85.043 147.968 78.7938 147.968C72.267 147.968 65.9484 148.732 59.8382 150.259C53.7279 151.648 48.312 153.939 43.5904 157.133C38.73 160.327 34.9111 164.494 32.1337 169.632C29.2174 174.77 27.7593 181.019 27.7593 188.379C27.7593 195.739 29.2174 201.988 32.1337 207.126C34.9111 212.265 38.73 216.431 43.5904 219.625C48.312 222.819 53.7279 225.18 59.8382 226.707C65.9484 228.096 72.267 228.79 78.7939 228.79ZM78.7939 261.494C67.6843 261.494 57.4079 259.827 47.9648 256.495C38.3828 253.162 30.0507 248.371 22.9683 242.122C15.886 235.872 10.3312 228.235 6.30397 219.208C2.27676 210.043 0.263151 199.766 0.26315 188.379C0.26315 176.853 2.27676 166.577 6.30397 157.55C10.3312 148.524 15.886 140.886 22.9683 134.637C30.0506 128.387 38.3828 123.596 47.9648 120.264C57.4079 116.931 67.6843 115.264 78.7938 115.264C89.6257 115.264 99.7631 116.931 109.206 120.264C118.511 123.596 126.634 128.387 133.578 134.637C140.521 140.886 146.007 148.524 150.034 157.55C153.922 166.577 155.866 176.853 155.866 188.379C155.866 199.766 153.922 210.043 150.034 219.208C146.007 228.235 140.521 235.872 133.578 242.122C126.634 248.371 118.511 253.162 109.206 256.495C99.7631 259.827 89.6257 261.494 78.7939 261.494Z" fill="black"/>
<path d="M3.80431 105.407L3.80431 72.7036L125.037 72.7035L125.037 0.213679L152.534 0.213677L152.534 105.407L3.80431 105.407Z" fill="black"/>
</svg>
